name D:\school\WTK\thesis\model\3dpredictsim\Results\Batchsim_tmt_linear\Pog_s1_tmt_bCst_d02_k800_ig24_pas.mot
datacolumns 128
datarows 4
range 0.00000000 0.03322634
endheader
time	pelvis_tilt	pelvis_list	pelvis_rotation	pelvis_tx	pelvis_ty	pelvis_tz	hip_flexion_l	hip_adduction_l	hip_rotation_l	hip_flexion_r	hip_adduction_r	hip_rotation_r	knee_angle_l	knee_angle_r	ankle_angle_l	ankle_angle_r	subtalar_angle_l	subtalar_angle_r	tmt_angle_l	tmt_angle_r	mtp_angle_l	mtp_angle_r	lumbar_extension	lumbar_bending	lumbar_rotation	arm_flex_l	arm_add_l	arm_rot_l	arm_flex_r	arm_add_r	arm_rot_r	elbow_flex_l	elbow_flex_r	pro_sup_l	pro_sup_r	glut_med1_l/activation	glut_med2_l/activation	glut_med3_l/activation	glut_min1_l/activation	glut_min2_l/activation	glut_min3_l/activation	semimem_l/activation	semiten_l/activation	bifemlh_l/activation	bifemsh_l/activation	sar_l/activation	add_long_l/activation	add_brev_l/activation	add_mag1_l/activation	add_mag2_l/activation	add_mag3_l/activation	tfl_l/activation	pect_l/activation	grac_l/activation	glut_max1_l/activation	glut_max2_l/activation	glut_max3_l/activation	iliacus_l/activation	psoas_l/activation	quad_fem_l/activation	gem_l/activation	peri_l/activation	rect_fem_l/activation	vas_med_l/activation	vas_int_l/activation	vas_lat_l/activation	med_gas_l/activation	lat_gas_l/activation	soleus_l/activation	tib_post_l/activation	flex_dig_l/activation	flex_hal_l/activation	tib_ant_l/activation	per_brev_l/activation	per_long_l/activation	per_tert_l/activation	ext_dig_l/activation	ext_hal_l/activation	ercspn_l/activation	intobl_l/activation	extobl_l/activation	glut_med1_r/activation	glut_med2_r/activation	glut_med3_r/activation	glut_min1_r/activation	glut_min2_r/activation	glut_min3_r/activation	semimem_r/activation	semiten_r/activation	bifemlh_r/activation	bifemsh_r/activation	sar_r/activation	add_long_r/activation	add_brev_r/activation	add_mag1_r/activation	add_mag2_r/activation	add_mag3_r/activation	tfl_r/activation	pect_r/activation	grac_r/activation	glut_max1_r/activation	glut_max2_r/activation	glut_max3_r/activation	iliacus_r/activation	psoas_r/activation	quad_fem_r/activation	gem_r/activation	peri_r/activation	rect_fem_r/activation	vas_med_r/activation	vas_int_r/activation	vas_lat_r/activation	med_gas_r/activation	lat_gas_r/activation	soleus_r/activation	tib_post_r/activation	flex_dig_r/activation	flex_hal_r/activation	tib_ant_r/activation	per_brev_r/activation	per_long_r/activation	per_tert_r/activation	ext_dig_r/activation	ext_hal_r/activation	ercspn_r/activation	intobl_r/activation	extobl_r/activation	
          0.00000000	         -2.92240690	         -2.52330967	          6.23569497	          0.00000000	          0.85488268	         -0.00306532	        -18.47335219	         -2.34195481	          7.65951371	         31.90005261	          3.44427022	         -2.60030498	         -8.56617591	        -15.36479800	         -0.07222935	          6.27046061	         11.76313632	         -3.48980410	          1.25519448	          0.03989456	         22.76640510	         -0.10295784	         -2.09844573	          1.09334893	         -2.12274764	          8.63646423	        -13.48116762	         19.07359082	         -9.96157714	        -13.53624221	          8.17021194	         38.81252821	         12.72875833	         86.51662706	         86.51662706	          0.24966292	          0.08470662	          0.05852561	          0.29040488	          0.19095757	          0.09416565	          0.05000090	          0.05000016	          0.05000013	          0.07212435	          0.09846291	          0.11769002	          0.13004208	          0.05000391	          0.05000224	          0.05000048	          0.29592448	          0.11660081	          0.05000393	          0.05000156	          0.05000085	          0.05000070	          0.35575383	          0.60190216	          0.05000035	          0.05000062	          0.05000014	          0.20841028	          0.12083857	          0.09696658	          0.06650277	          0.28640384	          0.38910172	          0.26407819	          0.24702956	          0.27152210	          0.34174169	          0.05000001	          0.06220003	          0.15717597	          0.05000007	          0.05000002	          0.05000008	          0.05000043	          0.05000024	          0.05000015	          0.05922950	          0.05922952	          0.05000008	          0.05922960	          0.05922958	          0.05922897	          0.05000209	          0.05000045	          0.28931254	          0.05000013	          0.05000035	          0.11662990	          0.25762319	          0.12287490	          0.12117386	          0.13149701	          0.05000011	          0.07014765	          0.07212561	          0.05000020	          0.05000018	          0.16117450	          0.05922964	          0.05366098	          0.32722103	          0.20496719	          0.13757530	          0.06144508	          0.19373960	          0.18976243	          0.16584138	          0.05000007	          0.05000007	          0.05005261	          0.05000000	          0.05000024	          0.05000019	          0.62436823	          0.36196356	          0.20615760	          0.39265120	          0.59534649	          0.33244597	          0.06024332	          0.08695061	          0.09050763	
          0.01107545	         -2.91054011	         -2.62915858	          6.48717261	          0.01710350	          0.85374455	         -0.00283063	        -18.16253579	         -2.65401958	          7.45501277	         31.22758759	          3.83994018	         -2.36520340	        -10.86795951	        -15.62409346	         -1.09648138	          5.63976193	         12.81835908	         -3.99084999	          1.17082863	          0.02969900	         23.76454043	         -0.07058988	         -1.86858079	          1.34054971	         -2.21013053	          8.34527002	        -13.50827002	         19.18355893	        -11.14196243	        -13.53146637	          7.99224334	         40.06422380	         12.70488103	         86.51662706	         86.51662706	          0.21075884	          0.07150709	          0.05922755	          0.24515215	          0.16120134	          0.07949217	          0.05000223	          0.05000026	          0.05000051	          0.06088548	          0.08311987	          0.20900335	          0.22955957	          0.08618394	          0.05923015	          0.05922996	          0.24981170	          0.09843292	          0.05000107	          0.05000958	          0.05003209	          0.05922930	          0.30031795	          0.54957650	          0.05922945	          0.05922933	          0.05000111	          0.17593443	          0.13815905	          0.13815914	          0.13815908	          0.24177450	          0.32846933	          0.22292778	          0.20853582	          0.22921186	          0.28848934	          0.05000000	          0.05250766	          0.14605219	          0.05000005	          0.05000002	          0.05000006	          0.06595229	          0.05922955	          0.05000010	          0.05000001	          0.05000007	          0.13727204	          0.05000007	          0.05000008	          0.05000009	          0.05000005	          0.05000013	          0.24422998	          0.05000008	          0.05000096	          0.09845595	          0.21747878	          0.33518964	          0.22873034	          0.14141578	          0.05000061	          0.05921876	          0.07678971	          0.10644874	          0.11771775	          0.13605949	          0.05000019	          0.05922889	          0.42129161	          0.17302789	          0.11613745	          0.05922974	          0.20558543	          0.22005946	          0.18388119	          0.05000010	          0.05000056	          0.05000000	          0.05922954	          0.07016324	          0.07016271	          0.54397062	          0.39303006	          0.24162543	          0.33146580	          0.57564174	          0.28064210	          0.05085581	          0.07340140	          0.07640414	
          0.02215089	         -2.89465289	         -2.73305369	          6.70475388	          0.03440863	          0.85257861	         -0.00260475	        -17.74663392	         -2.94522386	          7.23567949	         30.38057920	          4.16682955	         -2.08867522	        -13.33299580	        -16.10291595	         -2.29554580	          5.19278434	         13.79212791	         -4.52331209	          1.06184899	         -0.01518691	         24.53326603	         -0.19760385	         -1.62477361	          1.58967040	         -2.28647594	          7.96632798	        -13.53777727	         19.20739561	        -12.30105540	        -13.53219278	          7.88246860	         41.29512539	         12.69158324	         86.51662706	         86.51662706	          0.28403749	          0.06036440	          0.05000002	          0.34446843	          0.13608194	          0.06710520	          0.05000179	          0.05000011	          0.05000007	          0.05139797	          0.07016795	          0.17643519	          0.19378820	          0.07275426	          0.05000072	          0.05000046	          0.27486734	          0.08311230	          0.05000043	          0.05000052	          0.05000029	          0.05000018	          0.25352050	          0.50683269	          0.05000004	          0.05000020	          0.05000007	          0.14851918	          0.11663022	          0.11663030	          0.11663025	          0.20409961	          0.27728508	          0.18818971	          0.17604042	          0.19349464	          0.24353508	          0.05003404	          0.10759294	          0.16831867	          0.05000021	          0.14820297	          0.05000059	          0.08150481	          0.05000002	          0.05000003	          0.27748479	          0.29092020	          0.36949974	          0.36808329	          0.22688469	          0.18607209	          0.07496510	          0.08378115	          0.20617248	          0.07984280	          0.05000339	          0.08311393	          0.18358985	          0.28295827	          0.19308821	          0.15544221	          0.05000019	          0.05000196	          0.06482507	          0.22402679	          0.18228895	          0.12991549	          0.05000021	          0.05000011	          0.35564323	          0.14606566	          0.22935166	          0.05000019	          0.17354987	          0.18576902	          0.15522777	          0.05000055	          0.05000045	          0.05284829	          0.05000003	          0.05923001	          0.05922959	          0.60476962	          0.41673140	          0.20422644	          0.61542284	          0.64752932	          0.32013294	          0.07277563	          0.08317542	          0.06449834	
          0.03322634	         -2.87669907	         -2.82521275	          6.88242242	          0.05167475	          0.85143012	         -0.00234571	        -17.20357308	         -3.20629057	          7.01339058	         29.46572640	          4.47803245	         -1.81709021	        -15.97016508	        -16.53789458	         -3.56583998	          4.89632808	         14.68170140	         -5.08182414	          0.87765572	         -0.02337358	         24.85464288	         -0.20082975	         -1.39002020	          1.82866053	         -2.35188947	          7.54488845	        -13.57390054	         19.17083409	        -13.37972022	        -13.53238584	          7.85406098	         42.46876912	         12.64843500	         86.51662706	         86.51662706	          0.23977693	          0.05095806	          0.05000006	          0.29079115	          0.11487680	          0.05664848	          0.05000161	          0.05000019	          0.05000029	          0.05000005	          0.05923400	          0.19842800	          0.20338293	          0.12527862	          0.05005479	          0.11664293	          0.23203616	          0.07016147	          0.05000033	          0.05000201	          0.05000157	          0.05000128	          0.21401528	          0.43970624	          0.05000012	          0.05000050	          0.05000010	          0.12537595	          0.09845626	          0.09845629	          0.09845624	          0.17229546	          0.23407670	          0.15886474	          0.14860867	          0.16334313	          0.20558593	          0.16394368	          0.12644294	          0.14209030	          0.24324686	          0.24314860	          0.11550200	          0.10990331	          0.05000001	          0.05000002	          0.40555519	          0.45255717	          0.52117443	          0.31072925	          0.25030489	          0.41747463	          0.07875405	          0.12139883	          0.17404534	          0.06740198	          0.05000020	          0.07016264	          0.15498181	          0.23886976	          0.24748016	          0.18670470	          0.05000015	          0.05590670	          0.13122643	          0.30304109	          0.23122110	          0.18507017	          0.05000008	          0.05000007	          0.30022460	          0.12330482	          0.26499240	          0.05000001	          0.22683161	          0.25826881	          0.20810082	          0.05000000	          0.05000002	          0.05000000	          0.05000000	          0.05000046	          0.05000012	          0.72578097	          0.35179358	          0.17240254	          0.63401141	          0.65646142	          0.45425721	          0.09646103	          0.07021448	          0.05444780	
